<svg width="1058" height="744" viewBox="0 0 1058 744" fill="none" xmlns="http://www.w3.org/2000/svg">
<path d="M205.499 0.587104C195.576 1.85931 183.339 4.1311 173.664 6.58464C152.993 11.8552 142.161 17.671 132.734 28.5756C125.871 36.5723 117.52 59.7446 112.476 85.0978C111.071 92.2767 109.83 98.3651 109.665 98.4559C109.582 98.5468 105.2 102.091 99.9078 106.18C73.5307 126.899 54.0993 146.709 45.8306 161.43C37.2312 176.878 29.7894 197.234 23.1744 223.768C18.2959 243.396 18.4613 242.215 10.0272 344.537C2.33734 437.135 0.518234 474.12 0.435547 538.093C0.435547 587.709 1.42779 617.97 3.74302 638.597C6.63706 663.86 14.8231 683.397 29.5413 700.39C48.89 722.654 68.9002 735.285 94.5331 741.373C106.44 744.19 128.848 744.19 138.274 741.373C151.752 737.375 164.982 728.924 179.701 714.93C199.793 695.847 215.173 670.584 238.739 617.606C244.362 604.884 250.977 590.163 253.292 584.892C256.186 578.44 259.163 573.442 262.47 569.444C265.199 566.173 269.333 560.539 271.814 556.995L276.279 550.361L284.713 557.903C303.813 574.896 313.157 579.894 335.069 584.983C345.322 587.346 365.581 587.8 375.42 585.892C397.994 581.53 417.508 573.442 434.128 561.447C448.35 551.088 456.949 539.093 468.278 513.831L474.231 500.563H529.218H584.204L590.158 513.831C601.486 539.093 610.085 551.088 624.308 561.447C640.68 573.352 660.442 581.53 683.015 585.892C692.855 587.8 713.113 587.346 723.366 584.983C745.278 579.894 754.622 574.896 773.723 557.903L782.157 550.361L786.622 556.995C789.02 560.539 793.071 565.991 795.635 568.99C800.844 575.26 802.25 578.168 817.299 612.154C842.353 669.039 857.071 693.938 877.329 713.658C892.048 728.015 906.352 737.284 920.078 741.373C929.587 744.19 951.913 744.19 963.902 741.373C989.535 735.285 1009.55 722.654 1028.89 700.39C1043.61 683.397 1051.8 663.86 1054.69 638.597C1057.01 617.97 1058 587.709 1058 538.093C1057.92 474.029 1056.1 437.044 1048.41 344.537C1040.14 243.942 1039.81 241.215 1033.94 218.861C1026.74 191.509 1019.55 173.062 1010.12 157.523C1002.35 144.619 981.763 124.173 957.784 105.635L948.523 98.3651L947.613 93.3671C947.117 90.5501 945.381 82.6443 943.809 75.738C935.872 40.7524 926.941 25.0316 909.577 15.7627C898.249 9.67428 880.719 4.67633 859.138 1.40495C847.562 -0.412485 823.252 -0.13987 814.157 1.85931C805.722 3.67674 795.304 7.6751 790.012 11.0374C781.991 16.217 772.4 27.6669 762.477 43.9329C756.276 54.2014 754.209 59.1994 751.315 71.1036C748.999 80.9177 745.03 105.453 745.03 110.178V112.995H529.218H313.405V110.178C313.405 100.637 306.625 66.3782 302.987 57.2002C300.258 50.2031 288.599 31.7561 282.15 24.1229C271.814 11.8552 262.305 6.13028 246.015 2.22279C237.333 0.223617 215.835 -0.6851 205.499 0.587104ZM878.156 126.535C894.528 131.533 905.525 147.89 905.608 167.337C905.608 176.697 903.872 183.148 899.076 191.236C888.409 209.047 865.174 215.044 848.389 204.322C828.544 191.69 822.591 164.156 835.242 143.347C839.293 136.622 843.841 132.442 850.952 128.807C859.965 124.173 867.986 123.537 878.156 126.535ZM221.623 174.061V199.414L217.075 205.685C209.551 215.771 197.726 228.493 193.84 230.583L190.202 232.492L186.564 230.583C182.347 228.312 173.168 218.679 164.734 207.684L158.781 199.869V174.243V148.708H190.202H221.623V174.061ZM786.622 217.771C797.123 222.132 806.549 233.037 809.94 244.578C812.089 251.757 812.089 263.661 810.022 270.476C807.128 279.836 802.498 286.742 795.387 292.285C788.276 297.738 782.487 299.737 773.557 299.919C764.462 300.009 758.343 298.01 751.232 292.74C731.304 277.837 728.658 246.304 745.775 227.766C750.984 222.132 756.607 218.497 763.304 216.407C769.506 214.499 780.338 215.135 786.622 217.771ZM969.277 216.044C980.522 218.679 990.941 227.676 996.15 239.398C999.044 245.668 999.292 246.94 999.54 255.573C1000.04 269.204 997.473 277.11 989.287 286.742C974.486 304.371 949.68 304.644 933.887 287.378C926.197 278.927 922.89 269.749 922.807 257.118C922.724 230.765 945.546 210.592 969.277 216.044ZM149.933 223.223C163.329 235.036 173.664 247.94 173.664 252.756C173.664 257.209 164.238 268.931 150.595 281.29L144.476 286.833H120.993H97.5926V252.938C97.5926 234.218 97.8406 218.679 98.1714 218.407C98.4194 218.043 108.838 217.771 121.241 217.771H143.814L149.933 223.223ZM282.398 252.302V286.379L259.328 286.651L236.258 286.833L231.711 283.016C224.434 276.928 211.7 263.116 209.054 258.754C207.814 256.482 206.739 253.574 206.739 252.211C206.739 247.304 218.067 233.673 232.289 221.587L236.672 217.771L259.576 217.952L282.398 218.225V252.302ZM633.155 247.395C649.279 253.21 662.178 258.208 661.847 258.663C661.434 259.026 657.961 260.389 654.075 261.752C650.189 263.025 637.124 267.75 624.969 272.203L602.809 280.29V258.572C602.809 246.668 603.057 236.854 603.305 236.854C603.553 236.854 617.031 241.579 633.155 247.395ZM450.665 258.208V278.655H420.485H390.304V258.208V237.762H420.485H450.665V258.208ZM194.75 274.929C199.297 278.018 205.333 284.47 213.519 295.011L221.623 305.462L221.457 330.906L221.209 356.35H190.202H159.194L158.946 330.815L158.781 305.28L164.238 298.101C172.424 287.378 177.633 281.653 183.091 277.201C188.383 272.748 190.946 272.294 194.75 274.929ZM883.2 309.733C897.836 317.457 905.608 330.724 905.608 348.171C905.608 360.712 901.557 371.253 893.536 379.34C885.35 387.61 877.081 390.79 864.926 390.245C857.65 389.972 856.327 389.609 850.539 386.428C818.87 369.254 822.094 319.819 855.665 307.643C859.386 306.28 862.198 306.007 868.73 306.189C876.337 306.461 877.743 306.825 883.2 309.733ZM371.121 381.885C389.312 385.974 406.593 398.242 417.26 414.599C422.056 421.868 427.1 433.773 429.249 442.678C431.978 453.583 431.978 473.393 429.249 484.025C423.875 505.016 413.043 521.464 397.25 532.823C384.02 542.273 371.782 546.181 355.575 546.181C340.03 546.09 327.214 542.001 314.645 532.914C285.622 512.013 273.302 472.575 284.465 436.135C288.186 423.958 292.982 415.598 302.242 405.33C313.819 392.426 325.229 385.52 340.692 381.885C348.134 380.067 363.265 380.067 371.121 381.885ZM712.534 381.794C737.506 387.61 757.847 405.602 767.438 430.501C785.795 477.845 761.154 531.823 715.511 544.182C705.341 546.908 690.457 546.908 680.287 544.182C662.426 539.366 646.22 527.189 636.049 511.014C629.351 500.291 625.713 490.931 623.481 478.209C622.075 470.667 622.323 453.946 623.811 445.949C630.096 413.781 652.835 389.064 683.015 381.703C689.465 380.158 705.754 380.158 712.534 381.794Z" fill="black"/>
<path d="M265.48 677V614.696H246.28V606.824H293.32V614.696H274.12V677H265.48ZM309.219 677V624.2H317.667V634.28H319.683L316.899 640.52C316.899 634.824 318.115 630.536 320.547 627.656C323.043 624.712 326.723 623.24 331.587 623.24C337.155 623.24 341.571 625 344.835 628.52C348.163 631.976 349.827 636.68 349.827 642.632V645.8H341.187V643.4C341.187 639.24 340.163 636.072 338.115 633.896C336.131 631.656 333.283 630.536 329.571 630.536C325.923 630.536 323.043 631.656 320.931 633.896C318.883 636.136 317.859 639.304 317.859 643.4V677H309.219ZM384.829 677.96C378.749 677.96 373.885 676.168 370.237 672.584C366.589 668.936 364.765 664.008 364.765 657.8V624.2H373.405V657.8C373.405 661.768 374.429 664.872 376.477 667.112C378.525 669.288 381.309 670.376 384.829 670.376C388.413 670.376 391.229 669.288 393.277 667.112C395.389 664.872 396.445 661.768 396.445 657.8V624.2H405.085V657.8C405.085 664.008 403.229 668.936 399.517 672.584C395.805 676.168 390.909 677.96 384.829 677.96ZM442.488 677.96C438.328 677.96 434.68 677.128 431.544 675.464C428.472 673.8 426.072 671.464 424.344 668.456C422.68 665.384 421.848 661.832 421.848 657.8V643.4C421.848 639.304 422.68 635.752 424.344 632.744C426.072 629.736 428.472 627.4 431.544 625.736C434.68 624.072 438.328 623.24 442.488 623.24C446.648 623.24 450.264 624.072 453.336 625.736C456.472 627.4 458.872 629.736 460.536 632.744C462.264 635.752 463.128 639.304 463.128 643.4V652.712H430.296V657.8C430.296 661.96 431.352 665.16 433.464 667.4C435.576 669.576 438.584 670.664 442.488 670.664C445.816 670.664 448.504 670.088 450.552 668.936C452.6 667.72 453.848 665.928 454.296 663.56H462.936C462.36 667.976 460.184 671.496 456.408 674.12C452.696 676.68 448.056 677.96 442.488 677.96ZM454.68 646.952V643.4C454.68 639.24 453.624 636.04 451.512 633.8C449.464 631.56 446.456 630.44 442.488 630.44C438.584 630.44 435.576 631.56 433.464 633.8C431.352 636.04 430.296 639.24 430.296 643.4V646.184H455.352L454.68 646.952ZM557.997 677.96C553.773 677.96 550.093 677.16 546.957 675.56C543.885 673.96 541.485 671.656 539.757 668.648C538.093 665.576 537.261 661.96 537.261 657.8V626.12C537.261 621.896 538.093 618.28 539.757 615.272C541.485 612.264 543.885 609.96 546.957 608.36C550.093 606.76 553.773 605.96 557.997 605.96C562.221 605.96 565.869 606.792 568.941 608.456C572.013 610.056 574.381 612.36 576.045 615.368C577.709 618.376 578.541 621.96 578.541 626.12H569.901C569.901 622.152 568.845 619.112 566.733 617C564.685 614.824 561.773 613.736 557.997 613.736C554.221 613.736 551.245 614.792 549.069 616.904C546.957 619.016 545.901 622.056 545.901 626.024V657.8C545.901 661.768 546.957 664.84 549.069 667.016C551.245 669.192 554.221 670.28 557.997 670.28C561.773 670.28 564.685 669.192 566.733 667.016C568.845 664.84 569.901 661.768 569.901 657.8V649.16H555.693V641.288H578.541V657.8C578.541 661.896 577.709 665.48 576.045 668.552C574.381 671.56 572.013 673.896 568.941 675.56C565.869 677.16 562.221 677.96 557.997 677.96ZM610.567 677.96C604.999 677.96 600.615 676.552 597.415 673.736C594.215 670.856 592.615 666.984 592.615 662.12C592.615 657.192 594.215 653.32 597.415 650.504C600.615 647.688 604.935 646.28 610.375 646.28H626.695V641C626.695 637.736 625.703 635.24 623.719 633.512C621.799 631.72 619.047 630.824 615.463 630.824C612.327 630.824 609.703 631.496 607.591 632.84C605.479 634.12 604.263 635.88 603.943 638.12H595.303C595.879 633.576 598.023 629.96 601.735 627.272C605.447 624.584 610.087 623.24 615.655 623.24C621.735 623.24 626.535 624.808 630.055 627.944C633.575 631.08 635.335 635.336 635.335 640.712V677H626.887V666.92H625.447L626.887 665.48C626.887 669.32 625.383 672.36 622.375 674.6C619.431 676.84 615.495 677.96 610.567 677.96ZM612.679 671.144C616.775 671.144 620.135 670.12 622.759 668.072C625.383 666.024 626.695 663.4 626.695 660.2V652.712H610.567C607.687 652.712 605.415 653.512 603.751 655.112C602.087 656.712 601.255 658.888 601.255 661.64C601.255 664.584 602.247 666.92 604.231 668.648C606.279 670.312 609.095 671.144 612.679 671.144ZM650.273 677V624.2H657.858V630.536H659.586L658.242 632.84C658.242 629.896 659.01 627.56 660.546 625.832C662.146 624.104 664.29 623.24 666.978 623.24C669.922 623.24 672.194 624.328 673.794 626.504C675.394 628.68 676.194 631.752 676.194 635.72L673.602 630.536H677.634L675.81 632.84C675.81 629.896 676.61 627.56 678.21 625.832C679.874 624.104 682.05 623.24 684.738 623.24C688.066 623.24 690.626 624.488 692.417 626.984C694.274 629.48 695.202 632.776 695.202 636.872V677H687.234V636.776C687.234 634.6 686.754 632.904 685.794 631.688C684.898 630.472 683.554 629.864 681.762 629.864C680.034 629.864 678.658 630.472 677.634 631.688C676.674 632.84 676.194 634.504 676.194 636.68V677H669.281V636.776C669.281 634.536 668.77 632.84 667.746 631.688C666.786 630.472 665.41 629.864 663.618 629.864C661.826 629.864 660.482 630.472 659.586 631.688C658.69 632.84 658.242 634.504 658.242 636.68V677H650.273ZM730.3 677.96C726.14 677.96 722.492 677.128 719.356 675.464C716.284 673.8 713.884 671.464 712.156 668.456C710.492 665.384 709.66 661.832 709.66 657.8V643.4C709.66 639.304 710.492 635.752 712.156 632.744C713.884 629.736 716.284 627.4 719.356 625.736C722.492 624.072 726.14 623.24 730.3 623.24C734.46 623.24 738.076 624.072 741.148 625.736C744.284 627.4 746.684 629.736 748.348 632.744C750.076 635.752 750.94 639.304 750.94 643.4V652.712H718.108V657.8C718.108 661.96 719.164 665.16 721.276 667.4C723.388 669.576 726.396 670.664 730.3 670.664C733.628 670.664 736.316 670.088 738.364 668.936C740.412 667.72 741.66 665.928 742.108 663.56H750.748C750.172 667.976 747.996 671.496 744.22 674.12C740.508 676.68 735.868 677.96 730.3 677.96ZM742.492 646.952V643.4C742.492 639.24 741.436 636.04 739.324 633.8C737.276 631.56 734.268 630.44 730.3 630.44C726.396 630.44 723.388 631.56 721.276 633.8C719.164 636.04 718.108 639.24 718.108 643.4V646.184H743.164L742.492 646.952ZM786.231 677.768C782.647 677.768 779.511 677.224 776.823 676.136C774.199 674.984 772.087 673.384 770.487 671.336C768.951 669.288 768.023 666.856 767.703 664.04H776.343C776.727 665.896 777.751 667.368 779.415 668.456C781.143 669.544 783.415 670.088 786.231 670.088H790.263C793.655 670.088 796.183 669.416 797.847 668.072C799.511 666.664 800.343 664.808 800.343 662.504C800.343 660.264 799.575 658.504 798.039 657.224C796.567 655.88 794.359 654.984 791.415 654.536L784.311 653.384C779.127 652.488 775.255 650.888 772.695 648.584C770.199 646.216 768.951 642.792 768.951 638.312C768.951 633.576 770.455 629.928 773.463 627.368C776.471 624.744 780.983 623.432 786.999 623.432H790.647C795.703 623.432 799.767 624.616 802.839 626.984C805.911 629.352 807.767 632.552 808.406 636.584H799.767C799.383 634.92 798.423 633.608 796.887 632.648C795.351 631.624 793.271 631.112 790.647 631.112H786.999C783.735 631.112 781.335 631.72 779.799 632.936C778.327 634.152 777.591 635.976 777.591 638.408C777.591 640.584 778.231 642.184 779.511 643.208C780.791 644.232 782.807 644.968 785.559 645.416L792.663 646.568C798.359 647.464 802.487 649.128 805.047 651.56C807.671 653.992 808.983 657.512 808.983 662.12C808.983 666.984 807.415 670.824 804.279 673.64C801.207 676.392 796.535 677.768 790.263 677.768H786.231Z" fill="black"/>
</svg>
